<svg xmlns="http://www.w3.org/2000/svg" viewBox="0 0 249.9117 223.17055"><defs><style>.cls-1{fill:#e2072f;}</style></defs><g id="Layer_2" data-name="Layer 2"><g id="Layer_1-2" data-name="Layer 1"><path class="cls-1" d="M219.97649,71.75583s12.86874,42.62443-11.85713,90.59772c-.89683,1.74-.23651-.08694-.22364-.12391,2.83144-8.15533,4.857-23.34884-9.60223-39.46113C176.90183,98.93129,67.66108,93.51439,67.92513,52.89292l-.07963-.004v0c.0218-15.42974.0216-22.8205,3.173-37.925l1.59927-7.99635a6.21178,6.21178,0,0,1,4.65-4.76825c9.99208-2.39552,38.73346-6.48791,80.27641,11.0034l2.16247,52.702a7.12452,7.12452,0,0,0,6.2901,7.871l53.97979-2.01981a.93516.93516,0,0,0,.445-.066"/><path class="cls-1" d="M148.74777,215.60784s-15.93866,16.89345-75.117-1.63936a11.5192,11.5192,0,0,1-8.07956-10.45338L63.58358,160.205a7.12451,7.12451,0,0,0-6.29009-7.871L3.34792,154.35766c-.48971-.05467-.79558,1.33169-.88259.84675C-6.87106,103.17254,13.319,64.13822,13.319,64.13822h0c-2.84886,10.83544-1.86469,30.17665,28.83664,49.85862,46.01432,29.499,113.93122,23.19077,111.26617,55.90236-.01776.11152-.05761.214-.07026.32734v0a226.10929,226.10929,0,0,1-4.60376,45.38128"/><rect class="cls-1" x="223.32396" y="196.17146" width="26.05467" height="26.48144" rx="5.33981" transform="translate(15.19707 -15.99014) rotate(4.00343)"/></g></g></svg>