<?xml version="1.0" encoding="UTF-8"?>
<svg width="311px" height="72px" viewBox="0 0 311 72" version="1.1" xmlns="http://www.w3.org/2000/svg" xmlns:xlink="http://www.w3.org/1999/xlink">
    <title>Logo-primary-layout@1x Copy 5</title>
    <g id="Page-1" stroke="none" stroke-width="1" fill="none" fillRule="evenodd">
        <g id="Logo-primary-layout@1x-Copy-5" fillRule="nonzero">
            <path d="M79.1751916,0 L35.3987959,0 C15.8485829,0 0,16.1177209 0,35.9999898 L0,35.9999898 C0,55.8822791 15.8485829,72 35.3987959,72 L55.082582,72 C68.145363,71.6049438 79.9299021,64.0274552 85.7407323,52.2867313 C83.6613001,53.1599549 81.429527,53.6098185 79.1751916,53.6101622 L35.3987959,53.6101622 C25.850708,53.6101622 18.0828019,45.7103621 18.0828019,36 C18.0828019,26.2896481 25.8506928,18.389853 35.3987959,18.389853 L79.1751916,18.389853 C88.7231328,18.389853 96.4910389,26.2896532 96.4910389,36 C96.4910389,36.0079297 96.4898849,36.0155598 96.4898849,36.0231899 C96.520362,50.4708221 89.3404714,63.9752522 77.3621202,72 L79.1751916,72 C98.7253844,72 114.573836,55.8822791 114.573836,36 L114.573836,36 C114.573836,16.1177209 98.7253844,0 79.1751916,0 Z" id="Path" fill="#D10000"></path>
            <path d="M182.975425,9.10588235 C188.662625,9.10588235 193.273025,13.6232755 193.273025,19.1957086 L193.273025,19.1957086 L193.273025,19.3360861 C193.273025,24.9085185 188.662624,29.4258824 182.975425,29.4258824 L182.975425,29.4258824 L170.560619,29.4258824 C164.873421,29.4258824 160.263025,24.9085175 160.263025,19.3360861 L160.263025,19.3360861 L160.263025,19.1957086 C160.263025,13.6232895 164.873433,9.10588235 170.560619,9.10588235 L170.560619,9.10588235 Z M130.862556,9.39846859 L135.200704,24.5333417 L139.536386,9.39846859 L145.20561,9.39846859 L149.542701,24.5333417 L153.878383,9.39846859 L159.11742,9.39846859 L153.43657,29.1683726 L145.648479,29.1683726 L142.372231,17.6708363 L139.094573,29.1683726 L131.307892,29.1683726 L125.624576,9.39846859 L130.862556,9.39846859 Z M183.698205,14.3651765 L169.837845,14.3651765 C167.451975,14.3651765 165.517845,16.2993064 165.517845,18.6851765 L165.517845,18.6851765 L165.517845,19.8465882 C165.517845,22.2324584 167.451975,24.1665882 169.837845,24.1665882 L169.837845,24.1665882 L183.698205,24.1665882 C186.084075,24.1665882 188.018205,22.2324584 188.018205,19.8465882 L188.018205,19.8465882 L188.018205,18.6851765 C188.018205,16.2993064 186.084075,14.3651765 183.698205,14.3651765 L183.698205,14.3651765 Z M207.234226,29.1683726 L210.511883,17.6708363 L213.788132,29.1683726 L221.576223,29.1683726 L227.257073,9.39846859 L222.018036,9.39846859 L217.682354,24.5333417 L213.345262,9.39846859 L207.676039,9.39846859 L203.340357,24.5333417 L199.002209,9.39846859 L193.764229,9.39846859 L199.447544,29.1683726 L207.234226,29.1683726 Z M137.01411,62.8941171 C142.602651,62.8941171 146.355944,60.2725172 146.355944,56.3716055 C146.355944,52.3083027 143.020858,50.32459 137.858979,50.32459 C132.743959,50.3245911 132.286997,49.7139461 132.286997,48.935957 C132.286997,48.0957007 133.654361,47.2533217 136.691734,47.2533217 C140.235395,47.2533217 143.679349,48.9172061 143.679349,48.9172061 L145.453646,44.5832525 C145.453646,44.5832525 142.430365,42.519583 137.01411,42.519583 C130.977062,42.519583 127.372449,45.181161 127.372449,49.6396495 C127.372449,52.3518201 128.832474,54.732487 135.787322,54.732487 C141.040453,54.732487 141.479799,55.5090606 141.479799,56.4773895 C141.479799,57.7542252 139.718538,58.1412738 136.663901,58.1412738 C133.048719,58.1412738 128.037987,55.7149674 128.037987,55.7149674 L125.906435,60.0054046 C125.906435,60.0054046 131.247646,62.8941171 137.01411,62.8941171 Z M159.157233,62.5810114 L159.157233,47.315589 L165.864751,47.315589 L165.864751,42.8111074 L147.327649,42.8111074 L147.327649,47.315589 L154.03411,47.315589 L154.03411,62.5810114 L159.157233,62.5810114 Z M177.499148,62.8941176 C183.904373,62.8941176 187.729187,58.8651328 187.729187,52.1144253 L187.729187,42.8111074 L182.606064,42.8111074 L182.606064,52.1144253 C182.608178,56.463238 181.128071,58.2378595 177.500205,58.2378595 C173.872339,58.2378595 172.392232,56.463238 172.392232,52.1144253 L172.392232,42.8111074 L167.269109,42.8111074 L167.269109,52.1144253 C167.269109,58.8637178 171.093923,62.8941176 177.499148,62.8941176 Z M208.287971,62.5820733 C213.993483,62.5820733 217.265151,59.3377996 217.265151,52.6822623 C217.265151,46.0270786 213.993483,42.5741176 208.287971,42.5741176 L190.487169,42.8121692 L190.487169,62.5820733 L208.287971,62.5820733 Z M249.953715,42.5741176 C255.642052,42.5741176 260.253375,47.0915108 260.253375,52.6639439 L260.253375,52.6639439 L260.253375,52.8043214 C260.253375,58.3767538 255.642052,62.8941176 249.953715,62.8941176 L249.953715,62.8941176 L237.523028,62.8941176 C231.834693,62.8941176 227.223375,58.3767528 227.223375,52.8043214 L227.223375,52.8043214 L227.223375,52.6639439 C227.223375,47.0915248 231.834705,42.5741176 237.523028,42.5741176 L237.523028,42.5741176 Z M299.701089,42.5741176 C305.389013,42.5741176 310,47.0915108 310,52.6639439 L310,52.6639439 L310,52.8043214 C310,58.3767538 305.389012,62.8941176 299.701089,62.8941176 L299.701089,62.8941176 L287.271597,62.8941176 C281.583675,62.8941176 276.972692,58.3767528 276.972692,52.8043214 L276.972692,52.8043214 L276.972692,52.6639439 C276.972692,47.0915248 281.583688,42.5741176 287.271597,42.5741176 L287.271597,42.5741176 Z M208.699463,47.3165494 C210.430177,47.3251751 211.898221,47.5703266 211.898221,52.681201 C211.898221,57.6928275 210.487183,58.0522337 208.800958,58.0761619 L208.597363,58.0776993 L195.610292,58.0776993 L195.610292,47.3165494 L208.699463,47.3165494 Z M250.677504,47.8334118 L236.799246,47.8334118 C234.413376,47.8334118 232.479246,49.7675416 232.479246,52.1534118 L232.479246,52.1534118 L232.479246,53.3148235 C232.479246,55.7006936 234.413376,57.6348235 236.799246,57.6348235 L236.799246,57.6348235 L250.677504,57.6348235 C253.063374,57.6348235 254.997504,55.7006936 254.997504,53.3148235 L254.997504,53.3148235 L254.997504,52.1534118 C254.997504,49.7675416 253.063374,47.8334118 250.677504,47.8334118 L250.677504,47.8334118 Z M300.424511,47.8334118 L286.548181,47.8334118 C284.162311,47.8334118 282.228181,49.7675416 282.228181,52.1534118 L282.228181,52.1534118 L282.228181,53.3148235 C282.228181,55.7006936 284.162311,57.6348235 286.548181,57.6348235 L286.548181,57.6348235 L300.424511,57.6348235 C302.810381,57.6348235 304.744511,55.7006936 304.744511,53.3148235 L304.744511,53.3148235 L304.744511,52.1534118 C304.744511,49.7675416 302.810381,47.8334118 300.424511,47.8334118 L300.424511,47.8334118 Z M264.294687,57.261147 L264.30475,57.261147 C265.761346,57.261147 266.942151,58.4419514 266.942151,59.8985474 L266.942151,59.9306534 C266.942151,61.3872494 265.761346,62.5680538 264.30475,62.5680538 L264.294687,62.5680538 C262.838091,62.5680538 261.657287,61.3872494 261.657287,59.9306534 L261.657287,59.8985474 C261.657287,58.4419514 262.838091,57.261147 264.294687,57.261147 Z M274.747699,62.1127766 L274.747699,42.1058824 L269.624576,42.1058824 L269.624576,62.1127766 L274.747699,62.1127766 Z M224.747699,62.1127766 L224.747699,42.1058824 L219.624576,42.1058824 L219.624576,62.1127766 L224.747699,62.1127766 Z" id="WOWSTUDIO.IO" stroke="#000000" stroke-width="0.5" fill="#000000"></path>
        </g>
    </g>
</svg>