<svg xmlns="http://www.w3.org/2000/svg" viewBox="0 0 353.82985 353.17578"><defs><style>.cls-1{fill:#d10000;}</style></defs><g id="Layer_2" data-name="Layer 2"><g id="Layer_1-2" data-name="Layer 1"><path class="cls-1" d="M47.85622,104.0127c3.999,6.41015,4.50391,14.42089,1.4209,22.55957-5.13379,13.55175-16.585,20.459-28.80469,15.83007-12.21875-4.6289-16.17969-17.375-11.0459-30.92675,3.07813-8.127,8.75684-13.793,15.98926-15.94727l2.15039,9.85742c-3.89355.78809-6.93066,3.999-9.03027,9.541-3.33789,8.81054-2.22363,14.12695,5.835,17.17969,8.05762,3.05273,12.46094-.17774,15.79687-8.98536,2.10352-5.55175,1.95215-9.97363-.45214-13.1455Z"/><path class="cls-1" d="M71.49782,56.76758c9.96387,8.45019,9.44824,21.80371.07422,32.85742-9.374,11.05273-22.46387,13.74316-32.42773,5.292-9.96485-8.45019-9.4502-21.80469-.07715-32.8584C48.44216,51.00488,61.533,48.31738,71.49782,56.76758Zm-25,11.59277c-6.09472,7.18555-6.80468,12.58594-.23242,18.16016,6.57422,5.57519,11.78613,3.98828,17.87793-3.19531,6.09375-7.18458,6.80371-12.585.23145-18.15821C57.80251,59.59277,52.5906,61.17578,46.49782,68.36035Z"/><path class="cls-1" d="M95.0281,18.44727l8.78222-5.0752L124.50368,49.1748l-8.37012,4.83887L84.62087,42.59473,97.45974,64.80664l-8.78223,5.07617L67.98317,34.0791l8.36719-4.83594,31.51758,11.418Z"/><path class="cls-1" d="M116.03689,8.76367,154.01052.17383l2.0791,9.18847-13.74121,3.1084,7.04492,31.1416-10.49512,2.375-7.04394-31.14257L118.115,17.95312Z"/><path class="cls-1" d="M185.68337.3623l14.03711,41.7295-10.915-.28321-2.25293-6.70605-17.50586-.45508-2.60547,6.58008-10.91406-.28418L171.72341,0Zm-7.26074,10.58008L172.7361,25.32129l10.61914.27539Z"/><path class="cls-1" d="M242.47731,47.99707c-6.27734,4.20313-14.26757,4.96582-22.501,2.14648-13.71-4.69433-20.9834-15.917-16.75-28.27929C207.45876,9.50293,220.07106,5.13281,233.781,9.82715c8.22168,2.81543,14.06738,8.30762,16.4541,15.46777l-9.78321,2.4668c-.91308-3.86719-4.21972-6.79883-9.82714-8.71875-8.91309-3.05176-14.19141-1.7666-16.98243,6.38574-2.792,8.15137.57911,12.44824,9.48926,15.499,5.61621,1.92383,10.03223,1.62989,13.125-.875Z"/><path class="cls-1" d="M262.22048,22.46484,293.66774,45.418l-5.55468,7.60937-11.37891-8.30468L257.91091,70.51074,249.22048,64.168l18.82324-25.78906-11.377-8.30371Z"/><path class="cls-1" d="M309.65407,103.23828,295.47341,113.75l-5.08106-6.85449,1.52832-1.13281a22.23557,22.23557,0,0,1-7.77441-6.37891c-4.78809-6.46-3.69336-11.73242,3.55176-17.10254,7.91211-5.86621,14.97461-5.8252,19.373.1084,2.16016,2.915,1.74708,7.36328.85547,10.94726,3.12891-3.47168,6.13672-9.14746,1.31934-15.64746-6.11816-8.25293-13.94727-8.15039-25.38379.32715-11.44043,8.48047-6.75488,17.38477-4.209,20.81836a46.62306,46.62306,0,0,0,7.291,7.417l-4.69531,5.53614a31.20879,31.20879,0,0,1-9.01465-8.25879c-4.97851-6.7168-9.373-21.0791,5.749-32.28907,14.53125-10.7705,27.49024-10.01953,36.49024,2.1211C324.44606,85.46582,316.909,97.86133,309.65407,103.23828Zm-7.24023-15.50879c-1.12988-1.52441-3.04785-3.041-9.42774,1.68848-5.47168,4.05566-3.56347,6.62988-2.93652,7.47558a14.38337,14.38337,0,0,0,6.83008,5.19239l3.13769-2.3252C302.65212,93.39551,303.71853,89.48926,302.41384,87.72949Z"/><path class="cls-1" d="M351.35915,160.29688l2.4707,10.72265-42.97558-2.3418-3.67383-15.94043,21.89062-12.10546-24.98144-1.3086-3.67285-15.93847,37.61621-20.918,2.4707,10.72168L311.701,129.17578l32.89355,1.76563,2.67383,11.60449-28.80371,15.98535Z"/><path class="cls-1" d="M322.39138,230.082c-12.83789-2.42383-18.98731-14.28906-16.29785-28.53125,2.68945-14.24121,12.74218-23.04785,25.58007-20.62305,12.83887,2.42481,18.99024,14.29,16.30079,28.53125C345.28493,223.70117,335.23024,232.50684,322.39138,230.082Zm16.00976-22.43066c1.748-9.25879-.30273-14.30567-8.7705-15.9043-8.47071-1.59961-12.21778,2.35449-13.96583,11.61133s.30274,14.30273,8.77051,15.90234C332.9031,220.85938,336.6531,216.9082,338.40114,207.65137Z"/><path class="cls-1" d="M305.65407,296.36133l-6.24414,9.06055-27.27637-33.29,9.28223-13.46778,23.70508,7.98047-15.89356-19.31445,9.28028-13.46582L339.32888,247.501l-6.24317,9.05859-31.23535-10.46191,20.89746,25.46191-6.75683,9.80371-31.23438-10.46387Z"/><path class="cls-1" d="M238.16481,311.57129c-4.50878-6.80078-.96875-15.72754,8.81446-22.21387,10.09375-6.69336,22.7832-7.85644,22.7832-7.85644L270.99,291.4541s-11.57617,1.58692-17.9043,5.78223c-5.34765,3.5459-7.9834,6.26465-6.50781,8.49023,1.12012,1.68848,2.78613,2.53223,11.98242-3.56445,12.17481-8.07324,17.48242-5.61719,20.61719-.88965,5.15332,7.77246,1.91992,16.59668-8.64844,23.60352-9.48144,6.28711-17.15918,6.19824-17.15918,6.19824L251.46657,321.46s7.95215-1.09668,14.15528-5.21c5.31738-3.52539,6.7373-6.58105,5.76562-8.0459-.89941-1.35644-2.4043-1.89062-11.3584,4.0459C250.99294,318.24219,242.8611,318.6543,238.16481,311.57129Z"/><path class="cls-1" d="M243.81228,339.6748,206.5447,350.93848l-2.72559-9.01856,13.48535-4.07519-9.2373-30.5625L218.367,304.169l9.23731,30.5625,13.48242-4.0752Z"/><path class="cls-1" d="M162.408,333.19434l-.31738,19.457-10.75879-.17578.31738-19.45606c.22949-14.11816,8.39941-22.41308,21.85059-22.19433,13.45214.21875,21.34668,8.77929,21.11718,22.89453l-.31738,19.456L183.54079,353l.31641-19.45605c.14844-9.09473-2.89942-12.85645-10.51758-12.98047-7.61914-.125-10.78809,3.53613-10.93652,12.63086Z"/><path class="cls-1" d="M103.52028,316.9834c4.48633-13.17871,13.17871-17.3877,24.52344-13.52539l21.47461,7.31152L136.19118,349.915l-21.47461-7.31152C103.37185,338.74121,99.034,330.16113,103.52028,316.9834Zm14.23243,16.70117,11.28906,3.84277,7.2539-21.30664L125.00661,312.377c-3.7832-1.28808-7.09961-2.67383-10.8164,8.24121C110.47536,331.53223,113.9695,332.39648,117.75271,333.68457Z"/><path class="cls-1" d="M108.4236,294.59375l-21.55468,35.292-9.1836-5.60937L99.24,288.98438Z"/><path class="cls-1" d="M46.11892,268.5752c9.25781-9.21778,22.5205-7.58106,32.74707,2.68945,10.22461,10.27051,11.80371,23.54,2.5459,32.75879-9.25879,9.21777-22.52344,7.582-32.748-2.68848C38.43728,291.06445,36.86013,277.793,46.11892,268.5752Zm9.44824,25.88671c6.64844,6.67676,11.96973,7.83887,18.07617,1.75879,6.1084-6.082,4.96582-11.4082-1.67969-18.084-6.64648-6.67578-11.96875-7.83692-18.07519-1.75684S48.92067,287.78613,55.56716,294.46191Z"/><path class="cls-1" d="M62.10329,252.12305l-9.47168,5.85449-5.85449-9.4707,9.4707-5.85547Z"/><path class="cls-1" d="M54.4197,239.28516,17.08181,257.05469l-4.624-9.71582,37.33789-17.76953Z"/><path class="cls-1" d="M16.574,183.416c12.79883-2.626,22.98829,6.01953,25.90137,20.21679C45.38845,217.8291,39.42849,229.79,26.62966,232.416,13.83181,235.043,3.6404,226.39746.72634,212.2002-2.18675,198.00293,3.77614,186.043,16.574,183.416Zm-6.30468,26.82617c1.89453,9.23047,5.706,13.12109,14.14746,11.38867,8.44433-1.73242,10.41113-6.8125,8.51758-16.04s-5.70508-13.11914-14.14649-11.38672S8.37575,201.01465,10.26931,210.24219Z"/></g></g></svg>