<svg xmlns="http://www.w3.org/2000/svg" width="191" height="38" fillRule="evenodd" xmlns:v="https://vecta.io/nano"><g fill="#000"><path d="M82.079 27.306l5.348-11.791h0L88.844 30h5.832a4.59 4.59 0 0 0 4.179-2.694L108.063 7h0-4.088a4.59 4.59 0 0 0-4.178 2.691l-4.85 10.673h0L93.632 7h-6.444a4.59 4.59 0 0 0-4.18 2.696L78.17 20.378h0l-.902-9.235A4.59 4.59 0 0 0 72.701 7h-2.884 0l2.251 23H77.9a4.59 4.59 0 0 0 4.179-2.694zm82.754 0l5.348-11.791h0L171.598 30h5.832a4.59 4.59 0 0 0 4.179-2.694L190.817 7h0-4.088a4.59 4.59 0 0 0-4.178 2.691l-4.85 10.673h0L176.386 7h-6.444a4.59 4.59 0 0 0-4.18 2.696l-4.838 10.682h0l-.902-9.235A4.59 4.59 0 0 0 155.455 7h-2.884 0l2.251 23h5.832a4.59 4.59 0 0 0 4.179-2.694z" fillRule="nonzero"/><path d="M138.064 7.106h-18.441c-6.384 0-11.56 5.074-11.56 11.334v.158c0 6.26 5.175 11.335 11.56 11.335h18.441c6.384 0 11.56-5.075 11.56-11.335v-.158c0-6.26-5.175-11.334-11.56-11.334m-.068 7.644c1.915 0 3.473 1.675 3.473 3.734v.176c0 2.059-1.558 3.735-3.473 3.735h-18.751c-1.915 0-3.473-1.675-3.473-3.735v-.176c0-2.059 1.558-3.734 3.473-3.734h18.751"/></g><path d="M41.588.493H19.046C8.978.493.817 8.678.817 18.774s8.161 18.281 18.229 18.281h10.136c6.89-.178 12.839-4.203 15.788-10.011a8.84 8.84 0 0 1-3.381.672H19.046c-4.917 0-8.917-4.012-8.917-8.943s4-8.942 8.917-8.942h22.543c4.917 0 8.917 4.012 8.917 8.942-.005 7.655-3.922 14.377-9.85 18.281h.934c10.067 0 18.229-8.185 18.229-18.281S51.656.493 41.588.493" fill="#d10000"/></svg>